<svg width="150" height="150" viewBox="0 0 150 150" fill="none" xmlns="http://www.w3.org/2000/svg">
<rect width="150" height="150" fill="white"/>
<path d="M25.815 116.34C26.8917 115.943 28.1667 115.178 29.64 114.045C31.1133 112.968 32.615 111.665 34.145 110.135C35.675 108.662 37.12 107.075 38.48 105.375C39.8967 103.675 41.0583 102.003 41.965 100.36C42.0217 99.68 42.0783 99.1133 42.135 98.66C42.1917 98.2067 42.22 97.6967 42.22 97.13C42.2767 96.5633 42.305 95.8833 42.305 95.09C42.3617 94.24 42.39 93.1067 42.39 91.69C42.39 89.65 42.3333 87.6383 42.22 85.655C42.1633 83.6717 41.9933 81.83 41.71 80.13C41.4833 78.43 41.1433 76.9283 40.69 75.625C40.2367 74.3217 39.67 73.3583 38.99 72.735C40.35 70.5817 41.2567 68.0033 41.71 65C42.1633 61.94 42.39 58.795 42.39 55.565C42.39 53.185 42.3333 51.0033 42.22 49.02C42.1067 47.0367 42.0217 45.0817 41.965 43.155C41.2283 43.155 40.605 43.0983 40.095 42.985C39.6417 42.815 39.075 42.645 38.395 42.475C37.7717 42.305 36.9217 42.135 35.845 41.965C34.825 41.795 33.4367 41.6533 31.68 41.54C32.1333 40.69 32.6433 39.8683 33.21 39.075C33.7767 38.2817 34.3717 37.4883 34.995 36.695C35.165 36.4683 35.5333 36.3267 36.1 36.27C36.7233 36.2133 37.46 36.185 38.31 36.185C39.2733 36.185 40.4633 36.2417 41.88 36.355C43.2967 36.4117 44.77 36.4967 46.3 36.61C47.83 36.6667 49.3317 36.7233 50.805 36.78C52.2783 36.8367 53.525 36.865 54.545 36.865C56.4717 36.865 57.69 36.695 58.2 36.355C58.03 36.8083 57.7183 37.3183 57.265 37.885C56.8683 38.395 56.4433 38.9617 55.99 39.585C55.5367 40.2083 55.14 40.86 54.8 41.54C54.46 42.1633 54.29 42.815 54.29 43.495C54.29 45.195 54.2333 47.0367 54.12 49.02C54.0067 50.9467 53.95 53.1 53.95 55.48C53.95 58.71 54.1483 61.855 54.545 64.915C54.9417 67.975 55.7633 70.5817 57.01 72.735C56.1033 74.945 55.4517 77.665 55.055 80.895C54.715 84.0683 54.545 87.44 54.545 91.01C54.545 94.07 54.6867 96.5917 54.97 98.575C55.31 100.502 55.905 101.72 56.755 102.23V102.655C55.3383 103.448 53.4683 104.582 51.145 106.055C48.8217 107.528 46.385 109.115 43.835 110.815C41.3417 112.572 38.8767 114.328 36.44 116.085C34.0033 117.842 31.9633 119.4 30.32 120.76L25.815 116.34Z" fill="#250051"/>
<path d="M138.915 113.705C134.608 115.858 130.585 117.218 126.845 117.785C123.105 118.352 119.705 118.635 116.645 118.635C113.528 118.635 110.752 118.238 108.315 117.445C105.878 116.652 103.64 115.632 101.6 114.385C99.6167 113.195 97.775 111.892 96.075 110.475C94.375 109.058 92.7033 107.727 91.06 106.48C89.4167 105.29 87.745 104.298 86.045 103.505C84.4017 102.712 82.5883 102.315 80.605 102.315C78.7917 102.315 76.95 102.485 75.08 102.825C77.3467 100.105 79.0183 96.9033 80.095 93.22C81.1717 89.48 81.71 85.57 81.71 81.49C81.71 80.3 81.6533 79.0817 81.54 77.835C81.4267 76.5317 81.2 75.285 80.86 74.095C80.5767 72.8483 80.1233 71.6867 79.5 70.61C78.9333 69.4767 78.1683 68.485 77.205 67.635C78.7917 64.6883 79.8683 61.9967 80.435 59.56C81.0583 57.1233 81.37 54.6017 81.37 51.995C81.37 49.3317 81.2 47.2917 80.86 45.875C80.5767 44.4017 80.095 43.24 79.415 42.39C78.735 41.54 77.8567 40.8317 76.78 40.265C75.76 39.6417 74.485 38.82 72.955 37.8C74.0317 37.9133 75.0517 37.9983 76.015 38.055C77.035 38.1117 78.0267 38.14 78.99 38.14C81.2567 38.14 83.3533 38.0267 85.28 37.8C87.2067 37.5733 89.02 37.3183 90.72 37.035C92.42 36.7517 94.0633 36.4967 95.65 36.27C97.2367 36.0433 98.8517 35.93 100.495 35.93C101.628 35.93 102.847 36.015 104.15 36.185C102.733 36.185 101.373 36.7233 100.07 37.8C98.8233 38.8767 97.69 40.265 96.67 41.965C95.7067 43.6083 94.9133 45.45 94.29 47.49C93.7233 49.4733 93.44 51.4283 93.44 53.355V74.86C93.44 76.73 93.4967 78.515 93.61 80.215C93.78 81.8583 93.9783 83.36 94.205 84.72C94.4883 86.0233 94.8 87.1567 95.14 88.12C95.48 89.0833 95.8483 89.7633 96.245 90.16C95.2817 90.5567 94.1483 91.095 92.845 91.775C91.5983 92.3983 90.635 93.3617 89.955 94.665C90.295 95.7983 91.2867 97.215 92.93 98.915C94.63 100.558 96.585 102.202 98.795 103.845C101.005 105.545 103.272 107.075 105.595 108.435C107.975 109.795 109.987 110.73 111.63 111.24C110.893 110.277 110.157 109.143 109.42 107.84C108.74 106.593 108.173 105.488 107.72 104.525C110.327 106.112 112.735 107.443 114.945 108.52C117.155 109.597 119.223 110.475 121.15 111.155C123.133 111.835 125.032 112.317 126.845 112.6C128.658 112.883 130.5 113.025 132.37 113.025C133.333 113.025 134.325 112.968 135.345 112.855C136.365 112.798 137.442 112.713 138.575 112.6L138.915 113.705Z" fill="#250051"/>
</svg>
